# xmcd
#
# Track frame offsets:
# 150
# 11972
# 22999
# 41861
# 53878
# 67433
# 83975
# 97020
# 109936
# 127950
# 140758
# 151888
# 170601
#
# Disc length: 2502 seconds
#
#
# Revision: 0
# Processed by: cddbd v1.5.1PL0 Copyright (c) Steve Scherf et al.
# Submitted via: FreeRIP 2.93 
#
DISCID=bd09c40d
DTITLE=C&C Band - Kordillery
DYEAR=2004
DGENRE=Country
TTITLE0=Mark Twain
TTITLE1=Rocky Mountain High
TTITLE2=Odchazim
TTITLE3=Bludny dalky
TTITLE4=Pozvedneme cis
TTITLE5=Cas zrani
TTITLE6=Doutnik
TTITLE7=Panenka z Porcelanu
TTITLE8=Vonava kourem
TTITLE9=Par patku
TTITLE10=Smaceny vzpominky
TTITLE11=Do Kordiller
TTITLE12=Hory Colorada
EXTD=
EXTT0=Redak
EXTT1=Dudlik
EXTT2=Hudes
EXTT3=Redak
EXTT4=Redak
EXTT5=Redak
EXTT6=Redak
EXTT7=Redak
EXTT8=Redak
EXTT9=Redak
EXTT10=Dudlik
EXTT11=Redak
EXTT12=Redak
PLAYORDER=
